REM GENRE "Modern Rock"
REM DATE 2011
REM DISCID 12345678
REM COMMENT "ExactAudioCopy v0.95b4"
PERFORMER "Test for flacon"
TITLE "Short file"
FILE "short.wav" WAVE
  TRACK 01 AUDIO
    TITLE "Short track 1"
    INDEX 00 00:00:00
    INDEX 01 00:00:33
  TRACK 02 AUDIO
    TITLE "Short track 2"
    INDEX 01 00:46:00
  TRACK 03 AUDIO
    TITLE "Short track 3"
    INDEX 00 01:22:22
    INDEX 01 01:25:10
  TRACK 04 AUDIO
    TITLE "Short track 4"
    INDEX 00 02:39:54
    INDEX 01 02:41:05
